<?xml version="1.0" standalone="no"?>
<!DOCTYPE svg PUBLIC "-//W3C//DTD SVG 20010904//EN"
 "http://www.w3.org/TR/2001/REC-SVG-20010904/DTD/svg10.dtd">
<svg version="1.0" xmlns="http://www.w3.org/2000/svg"
 width="708.000000pt" height="708.000000pt" viewBox="0 0 708.000000 708.000000"
 preserveAspectRatio="xMidYMid meet">

<g transform="translate(0.000000,708.000000) scale(0.100000,-0.100000)"
fill="#000000" stroke="none">
<path d="M2641 6493 c5 -21 15 -63 24 -93 8 -30 24 -91 36 -135 11 -44 24 -93
30 -110 13 -40 79 -280 89 -325 7 -31 64 -241 90 -330 19 -68 63 -226 81 -295
10 -38 31 -119 48 -180 16 -60 39 -146 51 -190 12 -44 32 -116 45 -160 13 -44
46 -165 74 -270 28 -104 62 -233 77 -285 14 -52 34 -126 44 -165 10 -38 30
-113 44 -165 15 -52 31 -111 36 -130 6 -19 26 -93 46 -165 20 -71 46 -170 59
-220 53 -198 150 -555 185 -680 33 -116 70 -259 70 -272 0 -10 -237 -13 -1153
-13 l-1154 0 -63 -67 c-70 -75 -169 -179 -420 -442 -91 -95 -182 -192 -202
-215 l-37 -41 2021 -3 c1112 -1 2023 0 2026 3 4 4 -58 256 -78 315 -5 14 -22
77 -39 140 -17 63 -47 174 -67 245 -19 72 -44 164 -55 205 -11 41 -35 131 -54
200 -19 69 -50 186 -70 260 -36 131 -65 239 -106 385 -11 39 -42 153 -69 255
-27 102 -79 293 -115 425 -36 132 -79 290 -95 350 -16 61 -36 135 -44 165 -8
30 -26 96 -40 145 -13 50 -43 160 -67 245 -23 85 -52 193 -65 240 -12 47 -37
137 -54 200 -17 63 -44 162 -60 220 -33 124 -69 257 -117 430 -33 123 -65 243
-104 390 -11 41 -27 96 -35 123 l-16 47 -403 0 -403 0 9 -37z"/>
<path d="M1810 5905 c0 -3 9 -40 21 -83 22 -83 71 -270 124 -477 19 -71 45
-173 59 -225 14 -52 43 -165 65 -250 55 -212 121 -467 166 -635 20 -77 54
-210 76 -295 22 -85 65 -249 96 -365 31 -115 59 -226 64 -245 4 -19 24 -96 44
-170 20 -74 45 -171 56 -215 11 -44 28 -111 39 -150 10 -38 31 -116 46 -172
l27 -103 400 0 c376 0 399 1 394 18 -8 29 -159 593 -172 647 -7 28 -32 120
-55 205 -23 85 -55 207 -72 270 -49 191 -130 497 -219 830 -11 41 -37 136 -56
210 -20 74 -46 173 -59 220 -12 47 -36 138 -53 203 -57 217 -141 531 -156 587
-8 30 -23 87 -34 125 l-18 70 -392 3 c-215 1 -391 0 -391 -3z"/>
<path d="M3940 5604 c0 -6 6 -30 14 -55 8 -24 26 -91 41 -149 15 -58 38 -143
51 -190 13 -47 37 -134 53 -195 16 -60 46 -171 66 -245 20 -74 47 -175 60
-225 13 -49 42 -155 63 -235 22 -80 88 -325 147 -545 59 -220 130 -481 157
-580 28 -99 53 -196 57 -215 5 -19 32 -120 61 -225 29 -104 56 -206 60 -225 4
-19 26 -100 48 -180 23 -80 52 -188 66 -240 28 -107 96 -364 121 -455 9 -33
29 -107 45 -165 15 -58 31 -113 35 -122 7 -17 -52 -18 -1148 -18 l-1154 0 -93
-97 c-125 -131 -354 -368 -517 -534 -73 -74 -133 -139 -133 -142 0 -4 913 -7
2030 -7 1117 0 2030 2 2030 5 0 3 -27 105 -61 227 -34 123 -74 270 -89 328
-41 152 -106 391 -135 495 -13 50 -54 198 -90 330 -36 132 -99 364 -141 515
-42 151 -80 293 -84 315 -5 22 -18 69 -28 105 -11 36 -37 128 -57 205 -20 77
-50 185 -65 240 -15 55 -40 145 -55 200 -14 55 -33 123 -41 150 -20 70 -81
296 -104 380 -10 39 -37 140 -60 225 -23 85 -52 193 -65 240 -25 95 -35 131
-142 520 -41 151 -81 298 -89 325 -8 28 -26 96 -40 152 l-27 103 -393 -3
c-272 -1 -394 -5 -394 -13z"/>
</g>
</svg>
